<svg id="Componente_1_2" data-name="Componente 1 – 2" xmlns="http://www.w3.org/2000/svg" width="32" height="44" viewBox="0 0 32 44">
  <g id="icon_maps_place_24px" data-name="icon/maps/place_24px" transform="translate(0.04 0.32)">
    <rect id="Boundary" width="31" height="31" transform="translate(-0.04 -0.32)" fill="none"/>
    <path id="_Color" data-name=" ↳Color" d="M9.5,26h0a59.535,59.535,0,0,1-4.749-5.89C2.583,17.033,0,12.626,0,9.1A8.854,8.854,0,0,1,2.781,2.664,9.654,9.654,0,0,1,9.5,0a9.654,9.654,0,0,1,6.719,2.664A8.854,8.854,0,0,1,19,9.1c0,3.525-2.583,7.933-4.75,11.009A59.535,59.535,0,0,1,9.5,26Zm0-20.15A3.328,3.328,0,0,0,6.107,9.1,3.328,3.328,0,0,0,9.5,12.351,3.328,3.328,0,0,0,12.893,9.1,3.328,3.328,0,0,0,9.5,5.85Z" transform="translate(7.96 2.68)" fill="#fff"/>
  </g>
  <g id="icon_maps_360_24px" data-name="icon/maps/360_24px" transform="translate(1.04 12.56)">
    <rect id="Boundary-2" data-name="Boundary" width="31" height="31" transform="translate(-0.04 0.44)" fill="none"/>
    <path id="_Color-2" data-name=" ↳Color" d="M12.955,0C5.8,0,0,2.9,0,6.478c0,2.9,3.809,5.351,9.069,6.18v4.185l5.182-5.182L9.069,6.478v3.537C4.988,9.289,2.591,7.553,2.591,6.478c0-1.373,3.938-3.887,10.364-3.887S23.32,5.1,23.32,6.478c0,.946-1.891,2.449-5.182,3.278v2.656c4.573-1,7.773-3.278,7.773-5.934C25.911,2.9,20.107,0,12.955,0Z" transform="translate(3.381 7.503)" fill="#fff"/>
  </g>
</svg>
