<svg xmlns="http://www.w3.org/2000/svg" width="25" height="25" viewBox="0 0 25 25"><defs><style>.a{fill:#1976d2;}.b{fill:#fafafa;}</style></defs><path class="a" d="M21.875,0H3.125A3.128,3.128,0,0,0,0,3.125v18.75A3.128,3.128,0,0,0,3.125,25h18.75A3.128,3.128,0,0,0,25,21.875V3.125A3.128,3.128,0,0,0,21.875,0Z"/><path class="b" d="M203.719,103.812h-3.906v-3.125c0-.862.7-.781,1.562-.781h1.563V96h-3.125a4.687,4.687,0,0,0-4.687,4.687v3.125H192v3.906h3.125v8.594h4.687v-8.594h2.344Z" transform="translate(-182.625 -91.313)"/></svg>